<svg xmlns="http://www.w3.org/2000/svg" width="1960" height="1420" viewBox="0 0 1960 1420" font-family="Arial, Helvetica, sans-serif">

<defs>
  <marker id="seta" viewBox="0 0 10 10" refX="9" refY="5" markerWidth="10"
          markerHeight="10" orient="auto-start-reverse">
    <path d="M 0 0 L 10 5 L 0 10" fill="none" stroke="#8C8C8C" stroke-width="1.4"/>
  </marker>
  <marker id="triangulo" viewBox="0 0 12 12" refX="11" refY="6" markerWidth="13"
          markerHeight="13" orient="auto-start-reverse">
    <path d="M 0 0 L 12 6 L 0 12 z" fill="#ffffff" stroke="#000000" stroke-width="1.2"/>
  </marker>
</defs>

<rect width="1960" height="1420" fill="#ffffff"/>
<rect x="30" y="30" width="1900" height="1360" fill="none" stroke="#000000" stroke-width="1.2"/>
<path d="M 30 30 L 360 30 L 360 56 L 340 76 L 30 76 Z" fill="#ffffff" stroke="#000000" stroke-width="1.2"/>
<text x="44" y="61" font-size="17" font-weight="700" fill="#000000">uc<tspan font-weight="400" dx="8">Diagrama de Casos de Uso</tspan></text>
<rect x="330" y="130" width="1300" height="1200" fill="none" stroke="#000000" stroke-width="1.2"/>
<text x="980.0" y="160" text-anchor="middle" font-size="16" font-weight="700" fill="#000000">Sistema de Gestão do Centro de Distribuição</text>
<path d="M 130 520 L 78 520 L 78 416" fill="none" stroke="#000000" stroke-width="1"/>
<path d="M 130 650 L 78 650 L 78 416" fill="none" stroke="#000000" stroke-width="1"/>
<path d="M 130 780 L 78 780 L 78 416" fill="none" stroke="#000000" stroke-width="1"/>
<path d="M 130 910 L 78 910 L 78 416" fill="none" stroke="#000000" stroke-width="1"/>
<path d="M 130 1040 L 78 1040 L 78 416" fill="none" stroke="#000000" stroke-width="1"/>
<path d="M 130 1170 L 78 1170 L 78 416" fill="none" stroke="#000000" stroke-width="1"/>
<path d="M 130 1300 L 78 1300 L 78 416" fill="none" stroke="#000000" stroke-width="1"/>
<path d="M 78 416 L 140 416" fill="none" stroke="#000000" stroke-width="1" marker-end="url(#triangulo)"/>
<text x="87" y="630" font-size="12" fill="#5A5A5A" transform="rotate(-90 87 630)">generalização de atores</text>
<path d="M 210 240 L 356 234" fill="none" stroke="#000000" stroke-width="1"/>
<path d="M 210 390 L 413 507" fill="none" stroke="#000000" stroke-width="1"/>
<path d="M 210 520 L 440 803" fill="none" stroke="#000000" stroke-width="1"/>
<path d="M 210 650 L 265 650 L 265 782 L 620 782 L 620 230 L 655 230" fill="none" stroke="#000000" stroke-width="1"/>
<path d="M 210 650 L 265 650 L 265 488 L 920 488 L 920 990 L 955 990" fill="none" stroke="#000000" stroke-width="1"/>
<path d="M 210 780 L 620 780 L 620 540 L 655 540" fill="none" stroke="#000000" stroke-width="1"/>
<path d="M 210 910 L 265 910 L 265 988 L 920 988 L 920 230 L 955 230" fill="none" stroke="#000000" stroke-width="1"/>
<path d="M 210 910 L 265 910 L 265 988 L 920 988 L 920 325 L 955 325" fill="none" stroke="#000000" stroke-width="1"/>
<path d="M 210 910 L 265 910 L 265 988 L 920 988 L 920 540 L 955 540" fill="none" stroke="#000000" stroke-width="1"/>
<path d="M 210 1040 L 920 1040 L 920 1180 L 955 1180" fill="none" stroke="#000000" stroke-width="1"/>
<path d="M 210 1170 L 265 1170 L 265 1230 L 1220 1230 L 1220 990 L 1255 990" fill="none" stroke="#000000" stroke-width="1"/>
<path d="M 210 1170 L 265 1170 L 265 1230 L 1220 1230 L 1220 1180 L 1255 1180" fill="none" stroke="#000000" stroke-width="1"/>
<path d="M 210 1300 L 1220 1300 L 1220 1290 L 1255 1290" fill="none" stroke="#000000" stroke-width="1"/>
<path d="M 1750 650 L 1700 650 L 1700 686 L 1220 686 L 1220 540 L 1185 540" fill="none" stroke="#000000" stroke-width="1"/>
<path d="M 1750 650 L 1462 722" fill="none" stroke="#000000" stroke-width="1"/>
<path d="M 1750 1040 L 1700 1040 L 1700 938 L 1220 938 L 1220 990 L 1185 990" fill="none" stroke="#000000" stroke-width="1"/>
<line x1="470" y1="578" x2="470" y2="597" stroke="#8C8C8C" stroke-width="1.2" stroke-dasharray="6 5" marker-end="url(#seta)"/>
<g transform="translate(530,588)"><rect x="-41.0" y="-11" width="82" height="18" fill="#ffffff"/><text x="0" y="3" text-anchor="middle" font-size="13" fill="#000000">&lt;&lt;include&gt;&gt;</text></g>
<line x1="470" y1="692" x2="470" y2="578" stroke="#8C8C8C" stroke-width="1.2" stroke-dasharray="6 5" marker-end="url(#seta)"/>
<g transform="translate(530,635)"><rect x="-39.0" y="-11" width="78" height="18" fill="#ffffff"/><text x="0" y="3" text-anchor="middle" font-size="13" fill="#000000">&lt;&lt;extend&gt;&gt;</text></g>
<line x1="470" y1="268" x2="470" y2="287" stroke="#8C8C8C" stroke-width="1.2" stroke-dasharray="6 5" marker-end="url(#seta)"/>
<g transform="translate(530,278)"><rect x="-41.0" y="-11" width="82" height="18" fill="#ffffff"/><text x="0" y="3" text-anchor="middle" font-size="13" fill="#000000">&lt;&lt;include&gt;&gt;</text></g>
<line x1="470" y1="268" x2="470" y2="382" stroke="#8C8C8C" stroke-width="1.2" stroke-dasharray="6 5" marker-end="url(#seta)"/>
<g transform="translate(530,325)"><rect x="-41.0" y="-11" width="82" height="18" fill="#ffffff"/><text x="0" y="3" text-anchor="middle" font-size="13" fill="#000000">&lt;&lt;include&gt;&gt;</text></g>
<line x1="770" y1="268" x2="770" y2="287" stroke="#8C8C8C" stroke-width="1.2" stroke-dasharray="6 5" marker-end="url(#seta)"/>
<g transform="translate(830,278)"><rect x="-41.0" y="-11" width="82" height="18" fill="#ffffff"/><text x="0" y="3" text-anchor="middle" font-size="13" fill="#000000">&lt;&lt;include&gt;&gt;</text></g>
<line x1="770" y1="382" x2="770" y2="268" stroke="#8C8C8C" stroke-width="1.2" stroke-dasharray="6 5" marker-end="url(#seta)"/>
<g transform="translate(830,325)"><rect x="-39.0" y="-11" width="78" height="18" fill="#ffffff"/><text x="0" y="3" text-anchor="middle" font-size="13" fill="#000000">&lt;&lt;extend&gt;&gt;</text></g>
<line x1="770" y1="578" x2="770" y2="712" stroke="#8C8C8C" stroke-width="1.2" stroke-dasharray="6 5" marker-end="url(#seta)"/>
<g transform="translate(830,645)"><rect x="-41.0" y="-11" width="82" height="18" fill="#ffffff"/><text x="0" y="3" text-anchor="middle" font-size="13" fill="#000000">&lt;&lt;include&gt;&gt;</text></g>
<line x1="770" y1="578" x2="770" y2="807" stroke="#8C8C8C" stroke-width="1.2" stroke-dasharray="6 5" marker-end="url(#seta)"/>
<g transform="translate(830,692)"><rect x="-41.0" y="-11" width="82" height="18" fill="#ffffff"/><text x="0" y="3" text-anchor="middle" font-size="13" fill="#000000">&lt;&lt;include&gt;&gt;</text></g>
<line x1="770" y1="597" x2="770" y2="578" stroke="#8C8C8C" stroke-width="1.2" stroke-dasharray="6 5" marker-end="url(#seta)"/>
<g transform="translate(830,588)"><rect x="-39.0" y="-11" width="78" height="18" fill="#ffffff"/><text x="0" y="3" text-anchor="middle" font-size="13" fill="#000000">&lt;&lt;extend&gt;&gt;</text></g>
<line x1="770" y1="788" x2="770" y2="807" stroke="#8C8C8C" stroke-width="1.2" stroke-dasharray="6 5" marker-end="url(#seta)"/>
<g transform="translate(830,798)"><rect x="-41.0" y="-11" width="82" height="18" fill="#ffffff"/><text x="0" y="3" text-anchor="middle" font-size="13" fill="#000000">&lt;&lt;include&gt;&gt;</text></g>
<line x1="770" y1="902" x2="770" y2="788" stroke="#8C8C8C" stroke-width="1.2" stroke-dasharray="6 5" marker-end="url(#seta)"/>
<g transform="translate(830,845)"><rect x="-39.0" y="-11" width="78" height="18" fill="#ffffff"/><text x="0" y="3" text-anchor="middle" font-size="13" fill="#000000">&lt;&lt;extend&gt;&gt;</text></g>
<line x1="1070" y1="363" x2="1070" y2="382" stroke="#8C8C8C" stroke-width="1.2" stroke-dasharray="6 5" marker-end="url(#seta)"/>
<g transform="translate(1130,372)"><rect x="-41.0" y="-11" width="82" height="18" fill="#ffffff"/><text x="0" y="3" text-anchor="middle" font-size="13" fill="#000000">&lt;&lt;include&gt;&gt;</text></g>
<line x1="1034" y1="576" x2="806" y2="809" stroke="#8C8C8C" stroke-width="1.2" stroke-dasharray="6 5" marker-end="url(#seta)"/>
<g transform="translate(980,692)"><rect x="-41.0" y="-11" width="82" height="18" fill="#ffffff"/><text x="0" y="3" text-anchor="middle" font-size="13" fill="#000000">&lt;&lt;include&gt;&gt;</text></g>
<line x1="1287" y1="609" x2="1153" y2="566" stroke="#8C8C8C" stroke-width="1.2" stroke-dasharray="6 5" marker-end="url(#seta)"/>
<g transform="translate(1220,578)"><rect x="-39.0" y="-11" width="78" height="18" fill="#ffffff"/><text x="0" y="3" text-anchor="middle" font-size="13" fill="#000000">&lt;&lt;extend&gt;&gt;</text></g>
<line x1="1267" y1="762" x2="873" y2="828" stroke="#8C8C8C" stroke-width="1.2" stroke-dasharray="6 5" marker-end="url(#seta)"/>
<g transform="translate(1070,785)"><rect x="-41.0" y="-11" width="82" height="18" fill="#ffffff"/><text x="0" y="3" text-anchor="middle" font-size="13" fill="#000000">&lt;&lt;include&gt;&gt;</text></g>
<line x1="1370" y1="802" x2="1370" y2="783" stroke="#8C8C8C" stroke-width="1.2" stroke-dasharray="6 5" marker-end="url(#seta)"/>
<g transform="translate(1430,792)"><rect x="-39.0" y="-11" width="78" height="18" fill="#ffffff"/><text x="0" y="3" text-anchor="middle" font-size="13" fill="#000000">&lt;&lt;extend&gt;&gt;</text></g>
<line x1="1026" y1="955" x2="814" y2="785" stroke="#8C8C8C" stroke-width="1.2" stroke-dasharray="6 5" marker-end="url(#seta)"/>
<g transform="translate(920,860)"><rect x="-41.0" y="-11" width="82" height="18" fill="#ffffff"/><text x="0" y="3" text-anchor="middle" font-size="13" fill="#000000">&lt;&lt;include&gt;&gt;</text></g>
<line x1="1005" y1="959" x2="835" y2="876" stroke="#8C8C8C" stroke-width="1.2" stroke-dasharray="6 5" marker-end="url(#seta)"/>
<g transform="translate(920,908)"><rect x="-41.0" y="-11" width="82" height="18" fill="#ffffff"/><text x="0" y="3" text-anchor="middle" font-size="13" fill="#000000">&lt;&lt;include&gt;&gt;</text></g>
<line x1="1070" y1="1047" x2="1070" y2="1028" stroke="#8C8C8C" stroke-width="1.2" stroke-dasharray="6 5" marker-end="url(#seta)"/>
<g transform="translate(1130,1038)"><rect x="-39.0" y="-11" width="78" height="18" fill="#ffffff"/><text x="0" y="3" text-anchor="middle" font-size="13" fill="#000000">&lt;&lt;extend&gt;&gt;</text></g>
<line x1="1026" y1="1145" x2="814" y2="975" stroke="#8C8C8C" stroke-width="1.2" stroke-dasharray="6 5" marker-end="url(#seta)"/>
<g transform="translate(920,1050)"><rect x="-39.0" y="-11" width="78" height="18" fill="#ffffff"/><text x="0" y="3" text-anchor="middle" font-size="13" fill="#000000">&lt;&lt;extend&gt;&gt;</text></g>
<line x1="1370" y1="1028" x2="1370" y2="1142" stroke="#8C8C8C" stroke-width="1.2" stroke-dasharray="6 5" marker-end="url(#seta)"/>
<g transform="translate(1430,1085)"><rect x="-41.0" y="-11" width="82" height="18" fill="#ffffff"/><text x="0" y="3" text-anchor="middle" font-size="13" fill="#000000">&lt;&lt;include&gt;&gt;</text></g>
<line x1="1370" y1="1047" x2="1370" y2="1028" stroke="#8C8C8C" stroke-width="1.2" stroke-dasharray="6 5" marker-end="url(#seta)"/>
<g transform="translate(1430,1038)"><rect x="-39.0" y="-11" width="78" height="18" fill="#ffffff"/><text x="0" y="3" text-anchor="middle" font-size="13" fill="#000000">&lt;&lt;extend&gt;&gt;</text></g>
<ellipse cx="470" cy="230" rx="115" ry="38" fill="#FFFFCC" stroke="#000000" stroke-width="1.1"/>
<text x="470" y="227" text-anchor="middle" font-size="13" fill="#000000">UC05 - Receber Pedido</text>
<text x="470" y="243" text-anchor="middle" font-size="13" fill="#000000">da Plataforma</text>
<ellipse cx="470" cy="325" rx="115" ry="38" fill="#FFFFCC" stroke="#000000" stroke-width="1.1"/>
<text x="470" y="322" text-anchor="middle" font-size="13" fill="#000000">UC06 - Registrar</text>
<text x="470" y="338" text-anchor="middle" font-size="13" fill="#000000">Pedido</text>
<ellipse cx="470" cy="420" rx="115" ry="38" fill="#FFFFCC" stroke="#000000" stroke-width="1.1"/>
<text x="470" y="417" text-anchor="middle" font-size="13" fill="#000000">UC07 - Notificar</text>
<text x="470" y="433" text-anchor="middle" font-size="13" fill="#000000">Setor de Estoque</text>
<ellipse cx="470" cy="540" rx="115" ry="38" fill="#FFFFCC" stroke="#000000" stroke-width="1.1"/>
<text x="470" y="537" text-anchor="middle" font-size="13" fill="#000000">UC01 - Efetuar</text>
<text x="470" y="553" text-anchor="middle" font-size="13" fill="#000000">Login</text>
<ellipse cx="470" cy="635" rx="115" ry="38" fill="#FFFFCC" stroke="#000000" stroke-width="1.1"/>
<text x="470" y="632" text-anchor="middle" font-size="13" fill="#000000">UC03 - Validar</text>
<text x="470" y="648" text-anchor="middle" font-size="13" fill="#000000">Credenciais</text>
<ellipse cx="470" cy="730" rx="115" ry="38" fill="#FFFFCC" stroke="#000000" stroke-width="1.1"/>
<text x="470" y="727" text-anchor="middle" font-size="13" fill="#000000">UC02 - Recuperar</text>
<text x="470" y="743" text-anchor="middle" font-size="13" fill="#000000">Senha</text>
<ellipse cx="470" cy="840" rx="115" ry="38" fill="#FFFFCC" stroke="#000000" stroke-width="1.1"/>
<text x="470" y="837" text-anchor="middle" font-size="13" fill="#000000">UC04 - Gerenciar</text>
<text x="470" y="853" text-anchor="middle" font-size="13" fill="#000000">Usuários e Perfis</text>
<ellipse cx="770" cy="230" rx="115" ry="38" fill="#FFFFCC" stroke="#000000" stroke-width="1.1"/>
<text x="770" y="227" text-anchor="middle" font-size="13" fill="#000000">UC08 - Verificar Dispo-</text>
<text x="770" y="243" text-anchor="middle" font-size="13" fill="#000000">nibilidade de Estoque</text>
<ellipse cx="770" cy="325" rx="115" ry="38" fill="#FFFFCC" stroke="#000000" stroke-width="1.1"/>
<text x="770" y="322" text-anchor="middle" font-size="13" fill="#000000">UC09 - Consultar</text>
<text x="770" y="338" text-anchor="middle" font-size="13" fill="#000000">Saldo de Estoque</text>
<ellipse cx="770" cy="420" rx="115" ry="38" fill="#FFFFCC" stroke="#000000" stroke-width="1.1"/>
<text x="770" y="417" text-anchor="middle" font-size="13" fill="#000000">UC10 - Marcar Pedido</text>
<text x="770" y="433" text-anchor="middle" font-size="13" fill="#000000">como Pendente</text>
<ellipse cx="770" cy="540" rx="115" ry="38" fill="#FFFFCC" stroke="#000000" stroke-width="1.1"/>
<text x="770" y="537" text-anchor="middle" font-size="13" fill="#000000">UC11 - Separar</text>
<text x="770" y="553" text-anchor="middle" font-size="13" fill="#000000">Produtos</text>
<ellipse cx="770" cy="635" rx="115" ry="38" fill="#FFFFCC" stroke="#000000" stroke-width="1.1"/>
<text x="770" y="632" text-anchor="middle" font-size="13" fill="#000000">UC14 - Registrar Diver-</text>
<text x="770" y="648" text-anchor="middle" font-size="13" fill="#000000">gência de Separação</text>
<ellipse cx="770" cy="750" rx="115" ry="38" fill="#FFFFCC" stroke="#000000" stroke-width="1.1"/>
<text x="770" y="747" text-anchor="middle" font-size="13" fill="#000000">UC12 - Atualizar</text>
<text x="770" y="763" text-anchor="middle" font-size="13" fill="#000000">Estoque</text>
<ellipse cx="770" cy="845" rx="115" ry="38" fill="#FFFFCC" stroke="#000000" stroke-width="1.1"/>
<text x="770" y="842" text-anchor="middle" font-size="13" fill="#000000">UC13 - Registrar Movi-</text>
<text x="770" y="858" text-anchor="middle" font-size="13" fill="#000000">mentação no Histórico</text>
<ellipse cx="770" cy="940" rx="115" ry="38" fill="#FFFFCC" stroke="#000000" stroke-width="1.1"/>
<text x="770" y="937" text-anchor="middle" font-size="13" fill="#000000">UC26 - Gerar Alerta</text>
<text x="770" y="953" text-anchor="middle" font-size="13" fill="#000000">de Estoque Mínimo</text>
<ellipse cx="1070" cy="230" rx="115" ry="38" fill="#FFFFCC" stroke="#000000" stroke-width="1.1"/>
<text x="1070" y="227" text-anchor="middle" font-size="13" fill="#000000">UC15 - Embalar</text>
<text x="1070" y="243" text-anchor="middle" font-size="13" fill="#000000">Pedido</text>
<ellipse cx="1070" cy="325" rx="115" ry="38" fill="#FFFFCC" stroke="#000000" stroke-width="1.1"/>
<text x="1070" y="322" text-anchor="middle" font-size="13" fill="#000000">UC16 - Gerar Etiqueta</text>
<text x="1070" y="338" text-anchor="middle" font-size="13" fill="#000000">de Transporte</text>
<ellipse cx="1070" cy="420" rx="115" ry="38" fill="#FFFFCC" stroke="#000000" stroke-width="1.1"/>
<text x="1070" y="417" text-anchor="middle" font-size="13" fill="#000000">UC17 - Informar</text>
<text x="1070" y="433" text-anchor="middle" font-size="13" fill="#000000">Transportadora</text>
<ellipse cx="1070" cy="540" rx="115" ry="38" fill="#FFFFCC" stroke="#000000" stroke-width="1.1"/>
<text x="1070" y="537" text-anchor="middle" font-size="13" fill="#000000">UC18 - Despachar</text>
<text x="1070" y="553" text-anchor="middle" font-size="13" fill="#000000">Pedido</text>
<ellipse cx="1070" cy="990" rx="115" ry="38" fill="#FFFFCC" stroke="#000000" stroke-width="1.1"/>
<text x="1070" y="987" text-anchor="middle" font-size="13" fill="#000000">UC23 - Registrar Repo-</text>
<text x="1070" y="1003" text-anchor="middle" font-size="13" fill="#000000">sição de Estoque</text>
<ellipse cx="1070" cy="1085" rx="115" ry="38" fill="#FFFFCC" stroke="#000000" stroke-width="1.1"/>
<text x="1070" y="1082" text-anchor="middle" font-size="13" fill="#000000">UC24 - Liberar</text>
<text x="1070" y="1098" text-anchor="middle" font-size="13" fill="#000000">Pedidos Pendentes</text>
<ellipse cx="1070" cy="1180" rx="115" ry="38" fill="#FFFFCC" stroke="#000000" stroke-width="1.1"/>
<text x="1070" y="1177" text-anchor="middle" font-size="13" fill="#000000">UC25 - Emitir</text>
<text x="1070" y="1193" text-anchor="middle" font-size="13" fill="#000000">Pedido de Compra</text>
<ellipse cx="1370" cy="635" rx="115" ry="38" fill="#FFFFCC" stroke="#000000" stroke-width="1.1"/>
<text x="1370" y="632" text-anchor="middle" font-size="13" fill="#000000">UC20 - Notificar</text>
<text x="1370" y="648" text-anchor="middle" font-size="13" fill="#000000">Cliente sobre Status</text>
<ellipse cx="1370" cy="745" rx="115" ry="38" fill="#FFFFCC" stroke="#000000" stroke-width="1.1"/>
<text x="1370" y="742" text-anchor="middle" font-size="13" fill="#000000">UC21 - Confirmar</text>
<text x="1370" y="758" text-anchor="middle" font-size="13" fill="#000000">Entrega</text>
<ellipse cx="1370" cy="840" rx="115" ry="38" fill="#FFFFCC" stroke="#000000" stroke-width="1.1"/>
<text x="1370" y="837" text-anchor="middle" font-size="13" fill="#000000">UC22 - Registrar Ocor-</text>
<text x="1370" y="853" text-anchor="middle" font-size="13" fill="#000000">rência de Entrega</text>
<ellipse cx="1370" cy="990" rx="115" ry="38" fill="#FFFFCC" stroke="#000000" stroke-width="1.1"/>
<text x="1370" y="987" text-anchor="middle" font-size="13" fill="#000000">UC27 - Gerar Relató-</text>
<text x="1370" y="1003" text-anchor="middle" font-size="13" fill="#000000">rios Gerenciais</text>
<ellipse cx="1370" cy="1085" rx="115" ry="38" fill="#FFFFCC" stroke="#000000" stroke-width="1.1"/>
<text x="1370" y="1082" text-anchor="middle" font-size="13" fill="#000000">UC28 - Exportar</text>
<text x="1370" y="1098" text-anchor="middle" font-size="13" fill="#000000">Relatório</text>
<ellipse cx="1370" cy="1180" rx="115" ry="38" fill="#FFFFCC" stroke="#000000" stroke-width="1.1"/>
<text x="1370" y="1177" text-anchor="middle" font-size="13" fill="#000000">UC29 - Consultar Histó-</text>
<text x="1370" y="1193" text-anchor="middle" font-size="13" fill="#000000">rico de Movimentações</text>
<ellipse cx="1370" cy="1290" rx="115" ry="38" fill="#FFFFCC" stroke="#000000" stroke-width="1.1"/>
<text x="1370" y="1287" text-anchor="middle" font-size="13" fill="#000000">UC19 - Consultar Ras-</text>
<text x="1370" y="1303" text-anchor="middle" font-size="13" fill="#000000">treamento do Pedido</text>
<g stroke="#000000" stroke-width="1.6" fill="none">
<circle cx="170" cy="198" r="13" fill="#ffffff"/>
<line x1="170" y1="211" x2="170" y2="246"/>
<line x1="146" y1="226" x2="194" y2="226"/>
<line x1="170" y1="246" x2="150" y2="278"/>
<line x1="170" y1="246" x2="190" y2="278"/>
</g>
<text x="170" y="298" text-anchor="middle" font-size="13.5" fill="#000000">Plataforma de</text>
<text x="170" y="315" text-anchor="middle" font-size="13.5" fill="#000000">E-commerce</text>
<g stroke="#000000" stroke-width="1.6" fill="none">
<circle cx="170" cy="348" r="13" fill="#ffffff"/>
<line x1="170" y1="361" x2="170" y2="396"/>
<line x1="146" y1="376" x2="194" y2="376"/>
<line x1="170" y1="396" x2="150" y2="428"/>
<line x1="170" y1="396" x2="190" y2="428"/>
</g>
<text x="170" y="448" text-anchor="middle" font-size="13.5" fill="#000000">Usuário do Sistema</text>
<g stroke="#000000" stroke-width="1.6" fill="none">
<circle cx="170" cy="478" r="13" fill="#ffffff"/>
<line x1="170" y1="491" x2="170" y2="526"/>
<line x1="146" y1="506" x2="194" y2="506"/>
<line x1="170" y1="526" x2="150" y2="558"/>
<line x1="170" y1="526" x2="190" y2="558"/>
</g>
<text x="170" y="578" text-anchor="middle" font-size="13.5" fill="#000000">Administrador</text>
<text x="170" y="595" text-anchor="middle" font-size="13.5" fill="#000000">do Sistema</text>
<g stroke="#000000" stroke-width="1.6" fill="none">
<circle cx="170" cy="608" r="13" fill="#ffffff"/>
<line x1="170" y1="621" x2="170" y2="656"/>
<line x1="146" y1="636" x2="194" y2="636"/>
<line x1="170" y1="656" x2="150" y2="688"/>
<line x1="170" y1="656" x2="190" y2="688"/>
</g>
<text x="170" y="708" text-anchor="middle" font-size="13.5" fill="#000000">Funcionário</text>
<text x="170" y="725" text-anchor="middle" font-size="13.5" fill="#000000">do Estoque</text>
<g stroke="#000000" stroke-width="1.6" fill="none">
<circle cx="170" cy="738" r="13" fill="#ffffff"/>
<line x1="170" y1="751" x2="170" y2="786"/>
<line x1="146" y1="766" x2="194" y2="766"/>
<line x1="170" y1="786" x2="150" y2="818"/>
<line x1="170" y1="786" x2="190" y2="818"/>
</g>
<text x="170" y="838" text-anchor="middle" font-size="13.5" fill="#000000">Operador de</text>
<text x="170" y="855" text-anchor="middle" font-size="13.5" fill="#000000">Separação</text>
<g stroke="#000000" stroke-width="1.6" fill="none">
<circle cx="170" cy="868" r="13" fill="#ffffff"/>
<line x1="170" y1="881" x2="170" y2="916"/>
<line x1="146" y1="896" x2="194" y2="896"/>
<line x1="170" y1="916" x2="150" y2="948"/>
<line x1="170" y1="916" x2="190" y2="948"/>
</g>
<text x="170" y="968" text-anchor="middle" font-size="13.5" fill="#000000">Operador de</text>
<text x="170" y="985" text-anchor="middle" font-size="13.5" fill="#000000">Expedição</text>
<g stroke="#000000" stroke-width="1.6" fill="none">
<circle cx="170" cy="998" r="13" fill="#ffffff"/>
<line x1="170" y1="1011" x2="170" y2="1046"/>
<line x1="146" y1="1026" x2="194" y2="1026"/>
<line x1="170" y1="1046" x2="150" y2="1078"/>
<line x1="170" y1="1046" x2="190" y2="1078"/>
</g>
<text x="170" y="1098" text-anchor="middle" font-size="13.5" fill="#000000">Comprador</text>
<g stroke="#000000" stroke-width="1.6" fill="none">
<circle cx="170" cy="1128" r="13" fill="#ffffff"/>
<line x1="170" y1="1141" x2="170" y2="1176"/>
<line x1="146" y1="1156" x2="194" y2="1156"/>
<line x1="170" y1="1176" x2="150" y2="1208"/>
<line x1="170" y1="1176" x2="190" y2="1208"/>
</g>
<text x="170" y="1228" text-anchor="middle" font-size="13.5" fill="#000000">Gerente de</text>
<text x="170" y="1245" text-anchor="middle" font-size="13.5" fill="#000000">Operações</text>
<g stroke="#000000" stroke-width="1.6" fill="none">
<circle cx="170" cy="1258" r="13" fill="#ffffff"/>
<line x1="170" y1="1271" x2="170" y2="1306"/>
<line x1="146" y1="1286" x2="194" y2="1286"/>
<line x1="170" y1="1306" x2="150" y2="1338"/>
<line x1="170" y1="1306" x2="190" y2="1338"/>
</g>
<text x="170" y="1358" text-anchor="middle" font-size="13.5" fill="#000000">Cliente</text>
<g stroke="#000000" stroke-width="1.6" fill="none">
<circle cx="1790" cy="608" r="13" fill="#ffffff"/>
<line x1="1790" y1="621" x2="1790" y2="656"/>
<line x1="1766" y1="636" x2="1814" y2="636"/>
<line x1="1790" y1="656" x2="1770" y2="688"/>
<line x1="1790" y1="656" x2="1810" y2="688"/>
</g>
<text x="1790" y="708" text-anchor="middle" font-size="13.5" fill="#000000">Transportadora</text>
<g stroke="#000000" stroke-width="1.6" fill="none">
<circle cx="1790" cy="998" r="13" fill="#ffffff"/>
<line x1="1790" y1="1011" x2="1790" y2="1046"/>
<line x1="1766" y1="1026" x2="1814" y2="1026"/>
<line x1="1790" y1="1046" x2="1770" y2="1078"/>
<line x1="1790" y1="1046" x2="1810" y2="1078"/>
</g>
<text x="1790" y="1098" text-anchor="middle" font-size="13.5" fill="#000000">Fornecedor</text>
<rect x="360" y="1225" width="360" height="76" fill="#ffffff" stroke="#000000" stroke-width="1"/>
<line x1="378" y1="1251" x2="438" y2="1251" stroke="#8C8C8C" stroke-width="1.2" stroke-dasharray="6 5" marker-end="url(#seta)"/>
<text x="452" y="1255" font-size="13" fill="#000000">&lt;&lt;include&gt;&gt; - sempre acontece</text>
<line x1="378" y1="1281" x2="438" y2="1281" stroke="#8C8C8C" stroke-width="1.2" stroke-dasharray="6 5" marker-end="url(#seta)"/>
<text x="452" y="1285" font-size="13" fill="#000000">&lt;&lt;extend&gt;&gt; - acontece sob condição</text>
</svg>